<?xml version="1.0" standalone="no"?>
<!DOCTYPE svg PUBLIC "-//W3C//DTD SVG 20010904//EN"
 "http://www.w3.org/TR/2001/REC-SVG-20010904/DTD/svg10.dtd">
<svg version="1.0" xmlns="http://www.w3.org/2000/svg"
 width="500.000000pt" height="500.000000pt" viewBox="0 0 500.000000 500.000000"
 preserveAspectRatio="xMidYMid meet">

<g transform="translate(0.000000,500.000000) scale(0.100000,-0.100000)"
fill="#000000" stroke="none">
<path d="M2424 4069 c-46 -13 -81 -54 -93 -108 -19 -91 10 -175 73 -205 39
-18 133 -21 189 -5 36 10 37 12 37 54 0 25 5 45 10 45 6 0 10 14 10 30 l0 30
-75 0 -75 0 0 -30 c0 -16 5 -30 10 -30 13 0 13 -27 0 -35 -6 -3 -19 -3 -30 0
-18 6 -20 15 -20 96 l0 90 28 -3 c19 -2 28 -9 30 -26 3 -21 8 -23 55 -20 l52
3 0 50 c0 48 -1 50 -35 62 -41 14 -122 15 -166 2z"/>
<path d="M2168 4042 c-49 -13 -58 -20 -58 -39 0 -12 9 -30 19 -40 17 -16 46
-93 35 -93 -2 0 -35 27 -73 60 -39 33 -76 60 -83 60 -30 0 -133 -39 -132 -49
1 -6 2 -20 3 -31 0 -11 7 -20 15 -20 18 0 58 -129 60 -192 1 -26 4 -50 8 -53
8 -8 117 15 124 27 9 15 -7 68 -21 68 -11 0 -41 87 -33 96 2 1 38 -26 80 -62
42 -35 84 -64 92 -64 26 0 106 24 106 31 0 4 -16 58 -35 120 -20 61 -33 120
-30 130 6 19 -4 70 -14 68 -3 0 -32 -8 -63 -17z"/>
<path d="M2880 4005 c-6 -15 -8 -35 -5 -45 7 -23 -53 -180 -70 -180 -15 0 -30
-49 -18 -60 9 -8 119 -50 131 -50 12 0 31 59 22 65 -11 7 9 65 22 65 5 0 18
-5 28 -10 16 -9 17 -15 8 -40 -5 -17 -16 -30 -23 -30 -12 0 -32 -56 -23 -65 1
-2 33 -15 70 -29 37 -13 93 -44 124 -68 l56 -42 19 23 c12 14 17 31 14 42 -7
22 23 27 43 7 17 -17 15 -41 -3 -35 -9 4 -22 -5 -35 -23 l-20 -29 65 -47 c36
-25 85 -70 109 -99 43 -53 43 -53 69 -37 15 9 27 24 27 33 0 14 69 73 77 65 2
-1 -13 -47 -32 -100 l-35 -98 36 -49 c24 -33 40 -47 48 -41 6 5 50 39 97 75
48 37 95 67 106 67 10 0 29 7 41 16 l22 15 -32 45 c-48 67 -55 71 -83 44 -13
-13 -22 -26 -20 -30 5 -8 -54 -54 -61 -48 -3 4 30 109 50 158 4 10 -11 40 -39
78 l-46 63 -29 -21 c-16 -11 -27 -26 -25 -33 4 -11 -106 -100 -139 -113 -14
-5 -49 23 -42 34 9 15 97 245 94 247 -2 1 -28 21 -59 43 -31 23 -59 42 -64 42
-4 0 -47 -32 -95 -70 -48 -39 -101 -77 -116 -85 -27 -14 -29 -13 -37 7 -9 25
51 188 70 188 6 0 16 14 22 30 11 34 18 29 -86 66 -29 10 -55 15 -59 11 -4 -4
-9 -26 -10 -50 -2 -65 -3 -67 -21 -67 -32 0 -45 15 -37 43 3 15 12 27 19 27
11 0 40 59 33 65 -2 1 -28 12 -58 23 -30 11 -63 23 -72 27 -13 5 -20 0 -28
-20z m453 -350 c-13 -27 -19 -32 -30 -23 -11 9 -10 15 8 35 32 33 41 28 22
-12z"/>
<path d="M1723 3864 l-63 -36 15 -29 c9 -16 22 -29 30 -29 16 0 99 -145 92
-163 -5 -13 24 -69 33 -65 53 27 130 75 130 83 0 17 -31 56 -39 50 -12 -7
-103 153 -95 166 8 14 -16 59 -30 59 -6 -1 -39 -17 -73 -36z"/>
<path d="M1572 3751 c-29 -7 -192 -140 -192 -156 0 -14 32 -45 47 -45 9 0 48
-40 103 -105 10 -11 20 -33 24 -49 l7 -29 -25 16 c-34 23 -39 22 -60 -13 -14
-25 -15 -34 -5 -46 9 -11 9 -18 1 -26 -7 -7 -32 5 -86 42 -42 29 -76 56 -76
59 0 4 5 12 11 18 7 7 2 17 -19 31 l-29 21 -52 -72 -51 -72 22 -17 c13 -10 31
-18 42 -18 24 0 156 -98 156 -115 0 -8 8 -19 18 -24 28 -17 7 -12 -49 9 -28
12 -53 19 -54 18 -1 -2 -9 -22 -18 -45 l-16 -41 29 -11 c33 -11 34 -14 20 -41
-8 -16 -14 -17 -40 -7 -21 8 -30 18 -30 33 0 28 -29 40 -44 18 -10 -13 -16
-14 -39 -3 -21 10 -26 17 -21 33 9 28 8 28 38 17 24 -10 27 -8 41 25 21 50 20
52 -22 69 -64 27 -80 28 -86 8 -3 -10 -26 -67 -51 -127 -30 -71 -43 -113 -36
-120 5 -5 24 -10 42 -10 44 -2 188 -58 188 -73 0 -7 8 -17 18 -22 15 -9 15
-10 -5 -11 -12 0 -24 -4 -27 -8 -7 -12 -176 13 -185 26 -4 7 -21 14 -38 18
-33 7 -32 9 -48 -107 -7 -47 -7 -47 25 -54 22 -5 35 -3 40 5 5 8 18 10 35 6
21 -5 26 -12 23 -34 -3 -23 -7 -27 -32 -24 -16 2 -36 10 -43 18 -8 8 -25 14
-38 14 -21 0 -24 -5 -30 -70 -4 -38 -6 -73 -6 -77 2 -14 55 -23 62 -11 10 16
181 -8 192 -28 10 -18 63 -18 70 -1 3 8 8 44 12 82 l8 68 -66 -7 c-69 -8 -80
-3 -70 32 4 16 13 22 34 22 17 0 32 -6 35 -15 4 -9 19 -15 39 -15 33 0 34 0
40 58 7 60 19 97 86 257 50 121 189 317 273 385 30 25 55 50 56 56 0 19 -38
47 -56 40 -10 -4 -25 1 -35 10 -18 16 -17 19 21 60 45 49 51 82 21 130 -21 35
-63 54 -99 45z m9 -122 c8 -15 8 -24 0 -32 -14 -14 -57 25 -47 42 11 18 34 13
47 -10z"/>
<path d="M2280 3511 c-156 -34 -350 -130 -461 -228 -290 -258 -414 -607 -348
-988 55 -320 278 -607 582 -750 303 -142 649 -133 944 25 505 271 696 895 430
1404 -135 257 -374 447 -666 528 -110 30 -363 35 -481 9z m435 -27 c306 -66
570 -276 710 -563 36 -74 78 -201 70 -209 -3 -3 -32 -8 -64 -10 -78 -6 -135
20 -187 84 -115 141 -147 164 -226 164 -28 0 -62 10 -99 30 -31 16 -76 33
-100 36 -24 4 -64 18 -88 31 -76 40 -117 27 -142 -45 -26 -74 46 -151 192
-207 38 -15 67 -31 64 -36 -6 -9 -307 -109 -335 -112 -36 -3 -360 99 -360 113
0 3 36 21 79 38 172 71 227 152 166 246 -22 33 -55 34 -121 2 -27 -13 -67 -26
-89 -30 -22 -3 -62 -17 -90 -32 -30 -16 -76 -29 -118 -34 -81 -9 -118 -34
-183 -122 -58 -79 -105 -115 -160 -124 -39 -6 -134 2 -134 11 0 1 10 34 21 71
111 359 442 650 799 703 41 6 86 13 100 15 44 8 223 -5 295 -20z m-329 -476
c35 -68 -37 -141 -200 -202 -37 -14 -72 -26 -76 -26 -5 0 -23 12 -40 26 -38
33 -52 24 -19 -12 38 -40 173 -100 299 -132 123 -32 283 -88 365 -130 97 -48
229 -142 240 -169 18 -49 -69 -58 -142 -15 -76 45 -131 68 -224 96 -47 14
-103 37 -124 51 -24 17 -41 23 -47 17 -16 -16 65 -57 184 -96 107 -35 319
-148 381 -205 46 -42 32 -71 -34 -71 -39 0 -169 51 -239 93 -34 21 -95 43
-161 60 -58 14 -114 29 -124 33 -12 5 -16 3 -13 -6 2 -8 57 -28 122 -47 65
-18 137 -43 160 -57 22 -13 88 -45 146 -71 107 -47 143 -75 134 -100 -13 -33
-66 -27 -224 24 -196 63 -470 117 -439 86 3 -2 65 -16 138 -30 136 -27 344
-87 368 -107 18 -15 16 -47 -3 -55 -21 -8 -344 15 -404 29 -25 6 -130 11 -235
12 -212 1 -167 -9 -405 96 -52 23 -129 51 -172 63 -77 22 -79 23 -89 61 -27
101 -39 318 -23 418 l6 37 82 -2 c115 -1 157 23 241 138 59 80 113 114 185
115 29 0 67 11 105 30 33 17 75 30 93 30 19 0 47 9 63 21 34 24 78 38 97 31 7
-2 20 -18 28 -34z m320 23 c23 -10 45 -24 48 -30 4 -6 26 -11 49 -11 27 0 64
-11 102 -30 39 -20 75 -30 105 -30 67 0 116 -33 183 -123 81 -107 124 -131
233 -130 l82 1 6 -37 c16 -99 4 -316 -23 -417 -10 -39 -11 -39 -97 -63 -48
-13 -131 -46 -185 -72 -85 -42 -213 -89 -240 -89 -5 0 0 9 11 20 24 24 25 48
5 74 -14 18 -13 21 15 32 24 10 30 19 30 43 0 30 -6 36 -100 111 -24 18 -24
19 -4 20 11 0 29 9 39 20 29 32 10 67 -70 127 -75 56 -238 144 -304 164 -23 7
-41 15 -41 18 0 3 51 21 114 39 62 19 139 44 170 57 l56 23 38 -28 c52 -37 82
-77 82 -109 0 -31 20 -73 38 -79 6 -2 12 3 12 11 0 9 -4 17 -10 19 -5 2 -14
26 -19 53 -14 74 -87 139 -211 189 -184 73 -245 143 -194 221 19 30 27 30 80
6z m-1089 -896 c28 -8 109 -42 180 -74 122 -56 241 -91 313 -91 17 0 44 -10
60 -21 25 -19 37 -21 97 -15 181 17 273 18 395 6 128 -13 132 -13 172 8 22 12
51 22 64 22 60 0 186 36 299 86 129 58 226 94 250 94 21 0 16 -20 -33 -115
-185 -366 -563 -585 -968 -561 -197 11 -377 73 -542 187 -77 54 -193 169 -246
246 -31 47 -101 183 -113 221 -8 27 2 28 72 7z m1263 -135 c0 -5 -2 -10 -4
-10 -3 0 -8 5 -11 10 -3 6 -1 10 4 10 6 0 11 -4 11 -10z m-535 -30 c-45 -11
-153 -11 -160 0 -4 6 29 10 92 9 67 -1 88 -4 68 -9z"/>
<path d="M3853 3208 c-13 -6 -23 -16 -23 -22 0 -15 -173 -77 -184 -66 -8 8
-66 -7 -66 -17 0 -27 72 -192 95 -220 41 -48 106 -56 183 -23 70 30 102 69
102 125 0 44 -60 227 -76 231 -5 2 -19 -2 -31 -8z m27 -172 c0 -21 -10 -28
-69 -51 -75 -30 -106 -30 -106 -1 0 15 17 26 75 47 93 35 100 35 100 5z"/>
<path d="M3884 2816 c-31 -14 -64 -73 -64 -115 0 -21 -23 -44 -33 -34 -11 10
-8 41 4 45 7 2 8 20 4 51 l-7 47 -42 -6 c-22 -4 -43 -8 -45 -11 -3 -2 -5 -38
-5 -81 1 -99 27 -156 78 -170 74 -21 118 9 143 98 9 33 20 60 25 60 15 0 21
-30 8 -45 -8 -9 -10 -28 -6 -50 7 -33 9 -35 46 -35 37 0 39 2 46 36 8 45 0
130 -17 167 -14 30 -55 57 -86 57 -10 -1 -32 -7 -49 -14z"/>
<path d="M3410 1712 c0 -4 10 -13 23 -21 22 -14 22 -14 3 8 -20 22 -26 25 -26
13z"/>
<path d="M1582 1670 c-18 -29 -15 -38 4 -12 9 13 14 25 12 27 -2 2 -9 -5 -16
-15z"/>
<path d="M1546 1585 c-9 -26 -7 -32 5 -12 6 10 9 21 6 23 -2 3 -7 -2 -11 -11z"/>
<path d="M3265 1570 c10 -11 20 -20 23 -20 3 0 -3 9 -13 20 -10 11 -20 20 -23
20 -3 0 3 -9 13 -20z"/>
<path d="M1635 1511 c-63 -69 -46 -59 35 22 26 26 42 46 36 46 -6 -1 -38 -31
-71 -68z"/>
<path d="M1525 1540 c-3 -5 -1 -10 4 -10 6 0 11 5 11 10 0 6 -2 10 -4 10 -3 0
-8 -4 -11 -10z"/>
<path d="M3350 1474 c25 -27 47 -49 50 -47 2 2 -18 25 -45 51 l-49 47 44 -51z"/>
<path d="M3410 1511 c0 -9 30 -24 36 -18 2 1 -6 8 -16 15 -11 7 -20 8 -20 3z"/>
<path d="M3260 1446 c0 -2 8 -10 18 -17 15 -13 16 -12 3 4 -13 16 -21 21 -21
13z"/>
<path d="M3205 1376 c10 -14 19 -26 22 -26 7 0 -17 39 -28 46 -6 3 -3 -5 6
-20z"/>
<path d="M1715 1369 c-4 -6 -5 -12 -2 -15 2 -3 7 2 10 11 7 17 1 20 -8 4z"/>
<path d="M1795 1334 c-9 -14 -15 -27 -13 -30 2 -2 12 10 22 26 21 37 15 40 -9
4z"/>
<path d="M3110 1356 c0 -2 8 -10 18 -17 15 -13 16 -12 3 4 -13 16 -21 21 -21
13z"/>
<path d="M2177 1239 c-10 -34 -16 -63 -13 -66 5 -6 38 106 34 118 -2 5 -11
-19 -21 -52z"/>
<path d="M2899 1281 c13 -12 30 -21 38 -21 8 0 28 -7 46 -17 28 -14 31 -14 19
0 -7 9 -28 19 -45 22 -18 4 -43 14 -57 22 l-25 14 24 -20z"/>
<path d="M3166 1277 c3 -10 9 -15 12 -12 3 3 0 11 -7 18 -10 9 -11 8 -5 -6z"/>
<path d="M1920 1241 c0 -6 5 -13 10 -16 6 -3 10 1 10 9 0 9 -4 16 -10 16 -5 0
-10 -4 -10 -9z"/>
<path d="M2272 1190 c0 -19 2 -27 5 -17 2 9 2 25 0 35 -3 9 -5 1 -5 -18z"/>
<path d="M2522 1190 c0 -14 2 -19 5 -12 2 6 2 18 0 25 -3 6 -5 1 -5 -13z"/>
<path d="M2611 1184 c0 -11 3 -14 6 -6 3 7 2 16 -1 19 -3 4 -6 -2 -5 -13z"/>
<path d="M2262 1130 c0 -14 2 -19 5 -12 2 6 2 18 0 25 -3 6 -5 1 -5 -13z"/>
<path d="M2351 1134 c0 -11 3 -14 6 -6 3 7 2 16 -1 19 -3 4 -6 -2 -5 -13z"/>
<path d="M2421 1134 c-1 -11 6 -29 15 -40 8 -10 12 -13 9 -6 -4 8 -11 26 -15
40 -7 22 -8 23 -9 6z"/>
<path d="M2610 1121 c0 -6 4 -13 10 -16 6 -3 7 1 4 9 -7 18 -14 21 -14 7z"/>
</g>
</svg>
